<svg width="193" height="130" viewBox="0 0 193 130" fill="none" xmlns="http://www.w3.org/2000/svg">
<g clip-path="url(#clip0_792_29639)">
<path d="M15.5919 51.3158L35.0919 117.599C37.2301 124.954 43.9866 130 51.684 130H141.316C149.013 130 155.77 124.954 157.908 117.599L177.408 51.3158C183.737 29.8487 167.572 8.29602 145.164 8.29602H47.8353C25.3419 8.29602 9.26296 29.8487 15.5919 51.3158Z" fill="#E7F6FF"/>
<path d="M191.092 1.19737C190.322 0.427632 189.296 0 188.184 0H153.803C152.52 0 151.322 0.769737 150.809 1.88158L140.289 24.7171C139.776 25.8289 138.664 26.5132 137.467 26.5132H96.4144H55.4473C54.2499 26.5132 53.1381 25.8289 52.6249 24.7171L42.1052 1.88158C41.592 0.769737 40.4802 0 39.1973 0H4.81571C3.70387 0 2.67755 0.427632 1.90782 1.19737C1.13808 1.96711 0.710449 2.99342 0.710449 4.10526C0.710449 6.41447 2.59203 8.21053 4.81571 8.21053H26.967L25.9407 10.3487C25.6841 10.8618 25.171 11.2039 24.5723 11.2039H13.6249C12.4276 11.2039 11.4012 11.8026 10.8026 12.8289L8.83545 16.3355L11.8289 17.9605L13.2828 15.3092C13.5394 14.8816 13.967 14.625 14.4802 14.625H24.6578C26.5394 14.625 28.3354 13.5132 29.1907 11.8026L30.3026 9.49342C30.6447 8.72368 31.4144 8.21053 32.3552 8.21053C33.2104 8.21053 33.8947 8.72368 34.2368 9.49342L46.6381 38.0592C48.0065 41.2237 51.0855 43.1908 54.5065 43.1908H70.9276C73.3223 43.1908 75.4604 44.9013 75.9736 47.2105L78.1118 56.875H52.796C49.6315 56.875 47.3223 59.9539 48.1776 63.0329L54.1644 83.4737C55.0197 86.2961 57.671 88.2632 60.5789 88.2632H81.9604V130H96.4999H111.039V88.3487H132.335C135.329 88.3487 137.895 86.3816 138.75 83.5592L144.737 63.1184C145.678 60.0395 143.368 56.9605 140.118 56.9605H114.974L117.112 47.2961C117.625 44.9868 119.678 43.2763 122.158 43.2763H138.579C142 43.2763 145.079 41.2237 146.447 38.1447L158.849 9.57895C159.191 8.80921 159.96 8.29605 160.73 8.29605C161.585 8.29605 162.355 8.80921 162.783 9.57895L163.895 11.8882C164.75 13.5987 166.46 14.7105 168.428 14.7105H178.52C179.033 14.7105 179.46 14.9671 179.717 15.3947L181.171 18.0461L184.164 16.4211L182.197 12.9145C181.599 11.8882 180.572 11.2895 179.375 11.2895H168.342C167.743 11.2895 167.23 10.9474 166.974 10.4342L165.947 8.29605H188.099C190.408 8.29605 192.204 6.41447 192.204 4.19079C192.289 2.99342 191.862 1.96711 191.092 1.19737Z" fill="#0C0B31"/>
<path d="M153.204 125.21C150.638 127.691 147.303 129.316 143.711 129.829C143.625 129.829 143.54 129.829 143.454 129.829C142.599 129.914 141.743 130 140.888 130H121.046C121.046 130 114.461 125.724 112.493 113.408C110.954 104 116.684 69.3618 120.362 71.671C124.125 73.9802 131.224 72.4407 133.362 74.6644C136.355 77.8289 136.697 86.3815 140.29 89.6315C148.842 97.4144 148.928 112.21 153.204 125.21Z" fill="#FFA296"/>
<path d="M75.6315 113.237C71.7828 113.237 68.7039 110.158 68.7039 106.309V23.7764C68.7039 19.9277 71.7828 16.8488 75.6315 16.8488H117.368C121.217 16.8488 124.296 19.9277 124.296 23.7764V106.309C124.296 110.158 121.217 113.237 117.368 113.237H75.6315Z" fill="#009DDC"/>
<path d="M117.368 18.9869C120.02 18.9869 122.158 21.125 122.158 23.7764V106.309C122.158 108.961 120.02 111.099 117.368 111.099H75.6315C72.9801 111.099 70.842 108.961 70.842 106.309V23.7764C70.842 21.125 72.9801 18.9869 75.6315 18.9869H117.368ZM117.368 14.7106H75.6315C70.5854 14.7106 66.5657 18.8158 66.5657 23.7764V106.309C66.5657 111.27 70.6709 115.375 75.6315 115.375H117.368C122.329 115.375 126.434 111.27 126.434 106.309V23.7764C126.434 18.8158 122.414 14.7106 117.368 14.7106Z" fill="white"/>
<path d="M117.197 47.296L115.059 56.9605H122.158V88.3486H111.039V111.099H81.9605V88.3486H70.842V56.9605H77.9407L75.8026 47.296C75.2894 44.9013 73.2368 43.2763 70.842 43.2763V26.5986H122.158V43.2763C119.763 43.2763 117.71 44.9013 117.197 47.296Z" fill="#0050B5"/>
<path fill-rule="evenodd" clip-rule="evenodd" d="M96.4998 88.3487C94.4215 88.3487 92.7366 90.0335 92.7366 92.1119C92.7366 94.1902 94.4215 95.875 96.4998 95.875C98.5781 95.875 100.263 94.1902 100.263 92.1119C100.263 90.0335 98.5781 88.3487 96.4998 88.3487ZM91.0261 92.1119C91.0261 89.0888 93.4768 86.6382 96.4998 86.6382C99.5228 86.6382 101.973 89.0888 101.973 92.1119C101.973 95.1349 99.5228 97.5855 96.4998 97.5855C93.4768 97.5855 91.0261 95.1349 91.0261 92.1119Z" fill="white"/>
<path fill-rule="evenodd" clip-rule="evenodd" d="M80.3354 35.0658C80.3354 34.2223 81.0058 33.3552 82.046 33.3552H85.5526V35.0658H82.046V38.5723H80.3354V35.0658ZM110.954 35.0658H107.447V33.3552H110.954C111.994 33.3552 112.664 34.2223 112.664 35.0658V38.5723H110.954V35.0658ZM112.579 60.3815V63.8881C112.579 64.7316 111.908 65.5986 110.868 65.5986H107.362V63.8881H110.868V60.3815H112.579ZM82.046 60.4671V63.9736H85.5526V65.6842H82.046C81.0058 65.6842 80.3354 64.8171 80.3354 63.9736V60.4671H82.046Z" fill="white"/>
<path d="M107.447 38.5724H98.0393V47.9803H107.447V38.5724ZM105.309 45.7566H100.263V40.7105H105.309V45.7566Z" fill="white"/>
<path d="M103.941 42.079H101.632V44.3882H103.941V42.079Z" fill="white"/>
<path d="M85.5525 47.9803H94.9604V38.5724H85.5525V47.9803ZM87.6906 40.7105H92.7367V45.7566H87.6906V40.7105Z" fill="white"/>
<path d="M107.447 51.0592H98.0393V60.4671H107.447V51.0592ZM105.309 58.3289H100.263V53.2829H105.309V58.3289Z" fill="white"/>
<path d="M94.9604 51.0592H92.8223V53.2829H94.9604V51.0592Z" fill="white"/>
<path d="M92.7368 57.0461H91.4539V54.908H94.8749V60.4672H85.7236V58.329H92.8223V57.0461H92.7368Z" fill="white"/>
<path d="M87.6907 54.8224H89.5723V56.9605H85.467V51.0592H91.1118V53.1974H87.6907V54.8224Z" fill="white"/>
<path d="M97.6972 90.3158C99.4933 87.4079 105.908 89.4605 108.388 91.8552C110.868 94.25 113.862 100.066 116.684 101.947C119.506 103.829 122.158 105.711 127.118 104.257L132.763 116.059C132.763 116.059 114.631 122.474 113.691 118.368C112.579 113.493 108.474 103.658 102.487 100.237C100.177 98.9539 96.0722 92.8816 97.6972 90.3158Z" fill="#FFA296"/>
</g>
<defs>
<clipPath id="clip0_792_29639">
<rect width="191.579" height="130" fill="white" transform="translate(0.710449)"/>
</clipPath>
</defs>
</svg>
