<svg width="158" height="130" viewBox="0 0 158 130" fill="none" xmlns="http://www.w3.org/2000/svg">
<path d="M138.211 115.673C117.33 131.797 67.6901 134.07 44.6941 123.709C23.4954 114.14 -2.14382 90.3511 0.922315 53.0288C3.98845 15.7065 33.5397 0.270086 56.7472 0.00576429C79.9546 -0.258558 103.268 8.56981 107.497 26.0151C111.726 43.4603 112.678 48.2181 120.607 63.6545C128.537 79.0909 157.877 69.311 157.877 69.311C157.983 73.1172 156.027 101.875 138.211 115.673Z" fill="#E7F6FF"/>
<path d="M57.4872 119.479C50.4563 119.479 43.5311 119.479 36.7644 119.479C39.4076 121.065 42.1037 122.44 44.6941 123.656C65.4698 133.013 107.92 132.114 131.339 119.955C120.396 119.797 107.18 119.691 91.4262 119.585C81.2762 119.479 70.0161 119.479 57.4872 119.479Z" fill="#0C0B31"/>
<path d="M150.37 70.0511C149.26 59.5311 144.608 50.1212 137.682 42.8788C129.277 34.209 117.541 28.764 104.536 28.764C100.096 28.764 95.8668 29.3984 91.7433 30.6142C85.9811 32.3059 80.6418 35.0548 75.9897 38.6496C74.0866 40.1298 72.3421 41.7158 70.7561 43.4603C64.8353 49.804 60.659 57.8394 59.0731 66.6678C58.5444 69.3639 58.333 72.06 58.333 74.9146C58.333 75.8662 58.333 76.8706 58.3859 77.8222C58.7559 83.7959 60.289 89.5052 62.7207 94.6331C67.32 104.36 75.1439 112.184 84.871 116.783C90.8446 119.585 97.5055 121.171 104.536 121.171C111.197 121.171 117.541 119.797 123.303 117.206C139.427 109.964 150.793 93.7344 150.793 74.9675C150.687 73.3287 150.529 71.637 150.37 70.0511ZM72.6593 92.6242C70.3332 88.1836 68.853 83.2143 68.483 77.9279C68.4301 77.1878 68.4301 76.4477 68.4301 75.7605C68.4301 72.6943 68.8002 69.681 69.5403 66.8264C71.0733 60.747 74.1923 55.3548 78.3686 50.967C80.0603 49.2225 81.8577 47.6894 83.8665 46.315C88.4657 43.0902 93.8579 40.9228 99.6201 40.1298C101.153 39.9184 102.739 39.8127 104.431 39.8127C114.634 39.8127 123.938 44.1475 130.493 51.0728C136.467 57.4165 140.273 65.9277 140.431 75.2318C140.431 75.4433 140.431 75.6547 140.431 75.8133C140.431 95.6903 124.308 111.814 104.431 111.814C90.686 111.761 78.6858 103.937 72.6593 92.6242Z" fill="#0C0B31"/>
<path d="M139.586 31.4073C142.123 33.2575 142.546 37.0109 140.431 39.3898L107.285 76.9236H50.8792C50.8792 45.9979 75.9897 20.8873 106.915 20.8873C119.127 20.8873 130.44 24.7992 139.586 31.4073Z" fill="#0050B5"/>
<path d="M32.1123 75.4962C30.9493 77.5579 30.3149 79.8839 30.3149 82.3685C30.3149 90.2453 36.7115 96.6419 44.5883 96.6419C46.3857 96.6419 50.1391 96.1661 54.8969 95.2146C57.8044 94.6331 61.0292 93.9458 64.5182 93.2057C67.6372 92.5714 70.9677 91.8313 74.2453 91.144C87.6728 88.2365 101.206 85.1704 104.907 84.3245C112.096 82.6329 113.206 78.5094 113.206 75.8662C113.206 74.2803 112.731 72.9058 111.938 71.6899C111.303 70.6855 110.352 69.8397 109.294 69.2053L85.0296 46.0507L77.4171 38.7025L71.7078 33.3104L66.3685 28.1825L75.514 1.80315C73.0823 1.27451 70.5448 0.85161 67.9544 0.534424L45.1698 65.822C38.8261 65.1347 33.0639 61.6986 29.4691 56.4121L8.74624 26.9666C6.26162 31.1958 4.25278 35.9536 2.82544 41.2929L18.6319 63.9717C22.2267 68.9939 26.8259 72.8529 32.1123 75.4962ZM60.2362 45.8921L63.8838 35.3721L66.5799 37.9096L72.2893 43.3017L79.8489 50.4913L96.0783 65.9806C95.8668 65.9806 95.7082 65.9806 95.4968 65.9806H53.2581L60.2362 45.8921Z" fill="#0C0B31"/>
<path d="M25.8215 100.29L27.196 98.8623L25.8215 100.29Z" fill="#009DDC"/>
<path d="M27.196 98.8623L25.8215 100.29L27.196 98.8623Z" fill="#009DDC"/>
<path d="M45.0111 49.3283L48.2358 44.4119C48.2358 44.4119 43.2666 36.7465 42.4207 29.7684C41.3106 22.1031 42.1035 11.9531 40.4648 2.4375C33.3281 4.55208 26.2442 8.14688 20.0591 13.3276C26.9315 26.0679 32.6937 37.1166 33.5924 43.5132C34.2268 48.5882 45.0111 49.3283 45.0111 49.3283Z" fill="#FFA296"/>
<path d="M48.0772 59.5311H25.6099V66.0863H48.0772V59.5311Z" fill="#0050B5"/>
<path d="M42.6852 86.7035C41.0993 87.1264 39.5662 86.2806 39.0376 84.6946L31.7952 60.0598L37.3988 58.421L44.6412 83.1087C45.1699 84.6418 44.2712 86.2806 42.6852 86.7035Z" fill="#0050B5"/>
<path d="M43.3726 84.166C43.5312 83.1087 42.5268 82.2628 41.4695 82.58C40.9937 82.7386 40.6237 83.2144 40.5708 83.743C40.4122 84.8003 41.4166 85.6461 42.4739 85.329C42.9497 85.0646 43.3197 84.6417 43.3726 84.166Z" fill="#0050B5"/>
<path d="M23.3368 103.831L25.1342 101.823C14.7727 92.8885 16.623 82.4214 19.2134 76.1833L23.2839 78.0336C21.1693 83.0557 19.7949 91.3026 28.0946 98.4393L29.892 96.4304L34.174 105.47L23.3368 103.831Z" fill="#009DDC"/>
<path d="M32.1122 43.7246L31.2135 45.6277C31.2135 45.6277 28.8875 44.4119 28.1474 45.3634C27.4073 46.315 27.7245 49.6983 25.6099 50.5441C23.4953 51.39 19.0547 49.9097 16.7287 50.5441C12.7638 51.7071 12.9753 56.7821 13.4511 59.584H49.2403C50.9319 59.584 53.3108 57.4694 52.5707 54.4032C51.8835 51.3371 49.6103 48.8525 48.9231 43.0903C48.8702 42.5087 47.0728 42.0858 46.5971 44.0947C45.8041 47.0551 43.5309 48.0595 41.2049 47.0022C39.7776 46.3678 36.077 44.4647 34.1211 43.1431C33.4338 42.7202 32.4294 42.9317 32.1122 43.7246Z" fill="#009DDC"/>
</svg>
