<svg width="139" height="130" viewBox="0 0 139 130" fill="none" xmlns="http://www.w3.org/2000/svg">
<path d="M9.50828 48.3542C-4.45551 84.172 -0.484527 112.377 10.8319 121.45C22.1484 130.523 48.1184 130.688 79.8679 129.3C117.471 127.657 139.34 119.497 138.687 91.4377C137.569 63.1779 127.091 10.8935 93.5707 2.11253C60.0501 -6.66847 23.4721 12.5365 9.50828 48.3542Z" fill="#E7F6FF"/>
<path d="M35.5901 124.444H66.1277L42.0593 52.8634C40.0085 46.766 34.2105 42.6584 27.648 42.6584H9.3031V98.7217C9.3031 112.925 21.067 124.444 35.5901 124.444Z" fill="#009DDC"/>
<path d="M22.689 52.8636C21.0111 47.8981 16.835 44.2287 11.8013 43.0603C10.72 42.8047 9.60144 42.6769 8.44555 42.6587C3.93389 42.7317 0.298462 46.3098 0.298462 50.746V89.1195V95.3082C0.80183 107.905 4.41861 117.215 10.0302 121.724C11.2607 122.71 12.6403 123.605 14.1877 124.444H46.7388L22.689 52.8636Z" fill="#0C0B31"/>
<path d="M39.1883 58.2307L61.8958 125.795L53.5436 126.708L30.5192 58.2307H39.1883Z" fill="#0C0B31"/>
<path d="M44.7626 123.933C44.7626 124.608 64.7109 125.101 92.1164 125.375C95.2485 124.408 98.2128 123.276 100.991 122.034C69.1293 122.436 44.7626 123.203 44.7626 123.933Z" fill="#0C0B31"/>
<path d="M7.71851 119.442C7.51343 119.205 7.30835 118.949 7.10327 118.693C7.30835 118.949 7.51343 119.205 7.71851 119.442Z" fill="#E7F6FF"/>
<path d="M8.52019 120.318C8.29647 120.099 8.09139 119.862 7.86768 119.606C8.07275 119.862 8.29647 120.099 8.52019 120.318Z" fill="#E7F6FF"/>
<path d="M10.0302 121.724C9.80653 121.541 9.56417 121.341 9.34045 121.14C9.58282 121.322 9.80653 121.523 10.0302 121.724Z" fill="#E7F6FF"/>
<path d="M9.17278 120.975C8.94906 120.775 8.72534 120.556 8.52026 120.337C8.74398 120.556 8.94906 120.775 9.17278 120.975Z" fill="#E7F6FF"/>
<path d="M6.37615 117.689C5.98464 117.105 5.59311 116.503 5.23889 115.864C5.59311 116.503 5.98464 117.123 6.37615 117.689Z" fill="#E7F6FF"/>
<path d="M7.10327 118.693C6.8982 118.42 6.69311 118.146 6.48804 117.854C6.69311 118.146 6.8982 118.42 7.10327 118.693Z" fill="#E7F6FF"/>
<path d="M5.1458 115.7C4.95937 115.371 4.79157 115.042 4.62378 114.714C4.79157 115.061 4.97801 115.389 5.1458 115.7Z" fill="#E7F6FF"/>
<path d="M5.23897 115.864C5.20168 115.809 5.18304 115.754 5.14575 115.7C5.18304 115.754 5.20168 115.809 5.23897 115.864Z" fill="#0C0B31"/>
<path d="M10.0304 121.724C10.2541 121.906 10.4965 122.089 10.7388 122.253C10.5151 122.071 10.2728 121.906 10.0304 121.724Z" fill="#0C0B31"/>
<path d="M9.3591 121.121C9.30317 121.067 9.24721 121.012 9.19128 120.957C9.22857 121.03 9.28453 121.085 9.3591 121.121Z" fill="#0C0B31"/>
<path d="M7.86766 119.625C7.81173 119.57 7.77444 119.515 7.71851 119.46C7.77444 119.515 7.81173 119.57 7.86766 119.625Z" fill="#0C0B31"/>
<path d="M6.48817 117.854C6.45089 117.799 6.41363 117.744 6.37634 117.689C6.41363 117.744 6.45089 117.799 6.48817 117.854Z" fill="#0C0B31"/>
<path d="M65.4566 29.8795H60.0687V33.4029H65.4566V29.8795Z" fill="#009DDC"/>
<path d="M73.2868 29.8795H70.1174V33.4029H73.2868V29.8795Z" fill="#009DDC"/>
<path d="M55.6129 29.8794H40.9594V33.4027H55.6129V29.8794Z" fill="#009DDC"/>
<path d="M44.7067 26.8125L42.6186 31.632L44.7067 36.4515L33.036 31.632L44.7067 26.8125Z" fill="#009DDC"/>
<path d="M39.8781 122.399L39.0578 121.45C32.4581 121.742 28.3752 122.071 28.1515 122.399H39.8781Z" fill="#0C0B31"/>
<path d="M90.6249 45.342L94.018 22.5042H84.9201C82.3473 22.5042 80.3525 24.7131 80.6694 27.2141L81.7507 39.5367L77.5187 42.9688L90.5317 48.1717L91.0164 47.3502L93.757 51.4212L90.6249 45.342Z" fill="#0C0B31"/>
<path d="M72.1495 95.8557L79.6441 73.4742L88.0149 48.5186L82.0304 46.474L76.4747 62.9407L73.6036 71.5026L66.0718 93.9023L72.1495 95.8557Z" fill="#0C0B31"/>
<path d="M102.762 28.4007H91.0165V22.5042H102.762C104.421 22.5042 105.782 23.8186 105.782 25.4616C105.782 27.0863 104.44 28.4007 102.762 28.4007Z" fill="#0C0B31"/>
<path d="M69.036 62.8309C86.1319 62.8309 100.002 76.4132 100.002 93.1537C100.002 109.894 86.1319 123.476 69.036 123.476C51.9401 123.476 38.0696 109.894 38.0696 93.1537C38.0696 76.4132 51.8469 62.8309 69.036 62.8309ZM44.8184 93.6283C44.8184 106.645 55.6501 117.251 68.9428 117.251C82.2354 117.251 93.0672 106.645 93.0672 93.6283C93.0672 80.612 82.2354 70.0054 68.9428 70.0054C55.6501 69.9872 44.8184 80.5937 44.8184 93.6283Z" fill="#0C0B31"/>
<path d="M69.036 98.5939C72.1867 98.5939 74.7408 96.1582 74.7408 93.1537C74.7408 90.1492 72.1867 87.7135 69.036 87.7135C65.8853 87.7135 63.3312 90.1492 63.3312 93.1537C63.3312 96.1582 65.8853 98.5939 69.036 98.5939Z" fill="#0C0B31"/>
<path d="M99.816 90.2328C99.816 90.4884 101.084 92.4965 101.568 93.9387C98.194 93.2998 96.311 90.5797 95.4348 87.3302C92.6383 76.9792 83.3167 69.184 72.0375 68.3442C71.5528 65.9892 71.0494 63.5247 70.6206 61.5166C88.2385 61.8087 99.816 73.036 99.816 90.2328Z" fill="#0C0B31"/>
<path d="M75.8594 69.6039C66.7243 66.9569 67.6751 58.6323 67.6751 58.6323C67.6751 58.6323 70.0987 58.614 71.8884 58.3949C73.6968 58.1759 77.7424 57.3726 80.0728 49.0115C80.6508 46.9486 87.6792 48.8289 87.6792 48.8289L81.7321 64.2185L69.8004 68.2348" fill="#0C0B31"/>
<path d="M89.3012 53.3565C86.1132 61.0239 86.5793 62.4296 92.6197 69.312C99.7787 77.4723 102.389 88.8091 101.55 93.9572C98.3059 88.3527 95.267 86.5636 95.528 85.9247C95.7891 85.2857 81.4151 66.7379 81.4151 66.7379C81.4151 66.7379 76.8289 67.888 76.8289 66.7379C76.8289 65.5878 83.2981 48.3362 83.2981 48.3362" fill="#0C0B31"/>
<path d="M138.687 91.4378C138.463 85.7968 137.867 79.2247 136.804 72.2145L131.267 87.7136C126.495 87.5311 122.057 85.1761 119.298 81.3241L95.0434 47.3137L84.8082 48.4091L111.897 86.3809C114.675 90.2694 118.534 93.2086 122.934 94.9064C122.412 96.0747 122.113 97.3709 122.113 98.7401C122.113 104.052 126.513 108.379 131.957 108.379C132.61 108.379 134.287 108.288 135.611 108.105C137.774 104.034 138.836 98.2837 138.687 91.4378Z" fill="#0C0B31"/>
<path d="M54.4756 38.4414L79.5322 38.5327C85.4234 38.5509 90.9232 41.3988 94.279 46.1636L98.2873 51.8594H65.4565C62.8651 51.8594 60.4788 50.5449 59.1365 48.3725L53.7672 39.7193C53.3943 39.1716 53.8045 38.4414 54.4756 38.4414Z" fill="#0050B5"/>
<path d="M99.6109 19.3095C98.1568 19.6928 95.4348 19.8024 93.7942 20.5144C92.1536 21.2263 91.9486 23.0884 91.7062 23.6908C91.4638 24.2933 92.3028 27.2142 95.9382 29.1858C98.511 30.5915 102.575 27.9809 102.575 27.9809C102.575 27.9809 103.172 27.0864 103.563 23.6361C103.712 22.3947 109.343 21.9566 115.327 15.5853C112.717 12.6096 109.734 9.94429 106.341 7.73535C103.302 13.5954 100.301 19.1269 99.6109 19.3095Z" fill="#FFA296"/>
<path d="M102.706 28.419C104.446 28.419 105.856 27.0377 105.856 25.3337C105.856 23.6298 104.446 22.2485 102.706 22.2485C100.966 22.2485 99.5551 23.6298 99.5551 25.3337C99.5551 27.0377 100.966 28.419 102.706 28.419Z" fill="#0C0B31"/>
<path d="M33.0174 57.5734L55.3707 124.079L46.6829 124.188L24.2924 57.5734H33.0174Z" fill="#009DDC"/>
<path d="M39.0393 121.45L39.8595 122.399H28.133C28.3753 122.071 32.4582 121.742 39.0393 121.45L31.2091 112.541H3.63574C5.27635 116.521 7.43893 119.643 10.0303 121.724C21.3468 130.797 48.1185 130.706 79.868 129.3C99.4247 128.442 114.731 125.832 124.817 119.57C96.3673 119.935 57.6825 120.61 39.0393 121.45Z" fill="#0C0B31"/>
</svg>
